# xmcd CD database file
#
# Track frame offsets:
#	150
#	27262
#	56122
#	80535
#	102610
#	133977
#	154750
#	183455
#	207012
#	229392
#	263120
#
# Disc length: 3781 seconds
#
# Revision: 0
# Processed by: cddbd v1.5.2PL0 Copyright (c) Steve Scherf et al.
# Submitted via: CDex 1.70beta2
#
DISCID=9e0ec30b
DTITLE=Frank Strazzeri Trio and Quartet - Frank's Blues
DYEAR=1992
DGENRE=Jazz
TTITLE0=This is the moment
TTITLE1=Why the dreams
TTITLE2=Bouncin' with Bud
TTITLE3=The very thought of you
TTITLE4=Frank's Blues
TTITLE5=Flying down to Rio
TTITLE6=Round' midnight
TTITLE7=Budo
TTITLE8=I concetrate on you
TTITLE9=Summer of '42
TTITLE10=No Moe
EXTD=YEAR: 1992
EXTT0=
EXTT1=
EXTT2=
EXTT3=
EXTT4=
EXTT5=
EXTT6=
EXTT7=
EXTT8=
EXTT9=
EXTT10=
PLAYORDER=
